<svg width="32" height="32" viewBox="0 0 512 512" fill="none" xmlns="http://www.w3.org/2000/svg"><defs><linearGradient id="Y3JvZmZsZS1jaXJjbGU=" x1="512" y1="0" x2="0" y2="512" gradientUnits="userSpaceOnUse"><stop offset="0%" stop-color="oklch(0.8728 0.0738 75.3)" /><stop offset="100%" stop-color="oklch(0.6002 0.1182 67.98)" /></linearGradient><path id="Y3JvZmZsZS1zeW1ib2w=" d="M184 152v32h-32a16 16 0 0 0 0 36h32v72h-32a16 16 0 0 0 0 36h32v32a16 16 0 0 0 36 0v-32h72v32a16 16 0 0 0 36 0v-32h32a16 16 0 0 0 0-36h-32v-72h32a16 16 0 0 0 0-36h-32v-32a16 16 0 0 0-36 0v32h-72v-32a16 16 0 0 0-36 0z M220 220h72v72h-72z" /></defs><circle cx="256" cy="256" r="251" stroke="url(#Y3JvZmZsZS1jaXJjbGU=)" stroke-width="10" /><circle cx="256" cy="256" r="236" fill="url(#Y3JvZmZsZS1jaXJjbGU=)" /><g transform="rotate(45 256 256)" stroke-linejoin="round"><circle cx="256" cy="256" r="120" stroke="#fff" stroke-width="16" /><use href="#Y3JvZmZsZS1zeW1ib2w=" stroke="#fff" stroke-width="16" fill="url(#Y3JvZmZsZS1jaXJjbGU=)" /></g></svg>